<svg id="SvgjsSvg1018" width="288" height="288" xmlns="http://www.w3.org/2000/svg" version="1.1" xmlns:xlink="http://www.w3.org/1999/xlink" xmlns:svgjs="http://svgjs.com/svgjs"><defs id="SvgjsDefs1019"></defs><g id="SvgjsG1020"><svg xmlns="http://www.w3.org/2000/svg" width="288" height="288" viewBox="0 0 14 20"><g fill="none" fill-rule="evenodd" transform="translate(-5 -2)"><polygon points="0 0 24 0 24 24 0 24" fill="#060506" class="color000 svgShape"></polygon><path fill="#ffffff" d="M12,2 C8.13,2 5,5.13 5,9 C5,13.17 9.42,18.92 11.24,21.11 C11.64,21.59 12.37,21.59 12.77,21.11 C14.58,18.92 19,13.17 19,9 C19,5.13 15.87,2 12,2 Z M12,11.5 C10.62,11.5 9.5,10.38 9.5,9 C9.5,7.62 10.62,6.5 12,6.5 C13.38,6.5 14.5,7.62 14.5,9 C14.5,10.38 13.38,11.5 12,11.5 Z" class="color1D1D1D svgShape"></path></g></svg></g></svg>